<svg xmlns="http://www.w3.org/2000/svg" xmlns:xlink="http://www.w3.org/1999/xlink" contentStyleType="text/css" data-diagram-type="DESCRIPTION" height="887px" preserveAspectRatio="none" style="width:840px;height:887px;background:#FFFFFF;" version="1.1" viewBox="0 0 840 887" width="840px" zoomAndPan="magnify"><?plantuml 1.2026.4beta2?><defs/><g><g class="title" data-source-line="1"><text fill="#000000" font-family="sans-serif" font-size="14" font-weight="700" lengthAdjust="spacing" textLength="412.8975" x="210.1441" y="22.9951">Deployment Diagram - Edge AI Conveyor Monitoring</text></g><!--cluster Line--><g class="cluster" data-qualified-name="Line" data-source-line="3" id="ent0002"><polygon fill="none" points="73.57,53.2969,83.57,43.2969,321.57,43.2969,321.57,135.5969,311.57,145.5969,73.57,145.5969,73.57,53.2969" style="stroke:#181818;stroke-width:1;"/><line style="stroke:#181818;stroke-width:1;" x1="311.57" x2="321.57" y1="53.2969" y2="43.2969"/><line style="stroke:#181818;stroke-width:1;" x1="73.57" x2="311.57" y1="53.2969" y2="53.2969"/><line style="stroke:#181818;stroke-width:1;" x1="311.57" x2="311.57" y1="53.2969" y2="145.5969"/><text fill="#000000" font-family="sans-serif" font-size="14" font-weight="700" lengthAdjust="spacing" textLength="124.2021" x="131.4689" y="69.292">Production Line</text></g><!--cluster Edge--><g class="cluster" data-qualified-name="Edge" data-source-line="7" id="ent0004"><polygon fill="none" points="69.57,212.5969,79.57,202.5969,344.57,202.5969,344.57,612.2869,334.57,622.2869,69.57,622.2869,69.57,212.5969" style="stroke:#181818;stroke-width:1;"/><line style="stroke:#181818;stroke-width:1;" x1="334.57" x2="344.57" y1="212.5969" y2="202.5969"/><line style="stroke:#181818;stroke-width:1;" x1="69.57" x2="334.57" y1="212.5969" y2="212.5969"/><line style="stroke:#181818;stroke-width:1;" x1="334.57" x2="334.57" y1="212.5969" y2="622.2869"/><text fill="#000000" font-family="sans-serif" font-size="14" font-weight="700" lengthAdjust="spacing" textLength="95.9834" x="155.0783" y="228.592">Edge Server</text><text fill="#000000" font-family="sans-serif" font-size="14" font-weight="700" lengthAdjust="spacing" textLength="129.9238" x="138.1081" y="244.8889">Edge Computing</text></g><!--cluster Workstation--><g class="cluster" data-qualified-name="Workstation" data-source-line="17" id="ent0011"><polygon fill="none" points="376.57,525.4869,386.57,515.4869,624.57,515.4869,624.57,600.7869,614.57,610.7869,376.57,610.7869,376.57,525.4869" style="stroke:#181818;stroke-width:1;"/><line style="stroke:#181818;stroke-width:1;" x1="614.57" x2="624.57" y1="525.4869" y2="515.4869"/><line style="stroke:#181818;stroke-width:1;" x1="376.57" x2="614.57" y1="525.4869" y2="525.4869"/><line style="stroke:#181818;stroke-width:1;" x1="614.57" x2="614.57" y1="525.4869" y2="610.7869"/><text fill="#000000" font-family="sans-serif" font-size="14" font-weight="700" lengthAdjust="spacing" textLength="172.6826" x="410.2287" y="541.482">Operator Workstation</text></g><!--entity Cameras--><g class="entity" data-qualified-name="Line.Cameras" data-source-line="4" id="ent0003"><polygon fill="#F1F1F1" points="89.9,93.2969,99.9,83.2969,305.2486,83.2969,305.2486,119.5938,295.2486,129.5938,89.9,129.5938,89.9,93.2969" style="stroke:#181818;stroke-width:0.5;"/><line style="stroke:#181818;stroke-width:0.5;" x1="295.2486" x2="305.2486" y1="93.2969" y2="83.2969"/><line style="stroke:#181818;stroke-width:0.5;" x1="89.9" x2="295.2486" y1="93.2969" y2="93.2969"/><line style="stroke:#181818;stroke-width:0.5;" x1="295.2486" x2="295.2486" y1="93.2969" y2="129.5938"/><text fill="#000000" font-family="sans-serif" font-size="14" lengthAdjust="spacing" textLength="175.3486" x="104.9" y="116.292">Production Line Cameras</text></g><!--entity VSP--><g class="entity" data-qualified-name="Edge.VSP" data-source-line="8" id="ent0005"><rect fill="#F1F1F1" height="46.2969" rx="2.5" ry="2.5" style="stroke:#181818;stroke-width:0.5;" width="207.3779" x="93.88" y="266.5969"/><rect fill="#F1F1F1" height="10" style="stroke:#181818;stroke-width:0.5;" width="15" x="281.2579" y="271.5969"/><rect fill="#F1F1F1" height="2" style="stroke:#181818;stroke-width:0.5;" width="4" x="279.2579" y="273.5969"/><rect fill="#F1F1F1" height="2" style="stroke:#181818;stroke-width:0.5;" width="4" x="279.2579" y="277.5969"/><text fill="#000000" font-family="sans-serif" font-size="14" lengthAdjust="spacing" textLength="167.3779" x="108.88" y="299.592">Video Stream Processor</text></g><!--entity AIS--><g class="entity" data-qualified-name="Edge.AIS" data-source-line="9" id="ent0006"><rect fill="#F1F1F1" height="62.5938" rx="2.5" ry="2.5" style="stroke:#181818;stroke-width:0.5;" width="202.6201" x="99.26" y="389.8969"/><rect fill="#F1F1F1" height="10" style="stroke:#181818;stroke-width:0.5;" width="15" x="281.8801" y="394.8969"/><rect fill="#F1F1F1" height="2" style="stroke:#181818;stroke-width:0.5;" width="4" x="279.8801" y="396.8969"/><rect fill="#F1F1F1" height="2" style="stroke:#181818;stroke-width:0.5;" width="4" x="279.8801" y="400.8969"/><text fill="#000000" font-family="sans-serif" font-size="14" lengthAdjust="spacing" textLength="140.4443" x="114.26" y="422.892">AI Inference Service</text><text fill="#000000" font-family="sans-serif" font-size="14" lengthAdjust="spacing" textLength="162.6201" x="114.26" y="439.1889">Computer Vision Model</text></g><!--entity RCS--><g class="entity" data-qualified-name="Edge.RCS" data-source-line="10" id="ent0007"><rect fill="#F1F1F1" height="46.2969" rx="2.5" ry="2.5" style="stroke:#181818;stroke-width:0.5;" width="213.8311" x="93.66" y="551.9869"/><rect fill="#F1F1F1" height="10" style="stroke:#181818;stroke-width:0.5;" width="15" x="287.4911" y="556.9869"/><rect fill="#F1F1F1" height="2" style="stroke:#181818;stroke-width:0.5;" width="4" x="285.4911" y="558.9869"/><rect fill="#F1F1F1" height="2" style="stroke:#181818;stroke-width:0.5;" width="4" x="285.4911" y="562.9869"/><text fill="#000000" font-family="sans-serif" font-size="14" lengthAdjust="spacing" textLength="173.8311" x="108.66" y="584.982">Robot Command Service</text></g><!--entity Dashboard--><g class="entity" data-qualified-name="Workstation.Dashboard" data-source-line="18" id="ent0012"><rect fill="#F1F1F1" height="39.2969" rx="2.5" ry="2.5" style="stroke:#181818;stroke-width:0.5;" width="209.1084" x="394.02" y="555.4869"/><polygon fill="#F1F1F1" points="586.1284,560.4869,586.1284,574.4869,598.1284,574.4869,598.1284,566.4869,592.1284,560.4869,586.1284,560.4869" style="stroke:#181818;stroke-width:0.5;"/><line style="stroke:#181818;stroke-width:0.5;" x1="592.1284" x2="592.1284" y1="560.4869" y2="566.4869"/><line style="stroke:#181818;stroke-width:0.5;" x1="598.1284" x2="592.1284" y1="566.4869" y2="566.4869"/><text fill="#000000" font-family="sans-serif" font-size="14" lengthAdjust="spacing" textLength="179.1084" x="404.02" y="581.482">Operator Web Dashboard</text></g><!--entity RC--><g class="entity" data-qualified-name="RC" data-source-line="13" id="ent0008"><polygon fill="#F1F1F1" points="23.14,703.2869,33.14,693.2869,177.9974,693.2869,177.9974,729.5838,167.9974,739.5838,23.14,739.5838,23.14,703.2869" style="stroke:#181818;stroke-width:0.5;"/><line style="stroke:#181818;stroke-width:0.5;" x1="167.9974" x2="177.9974" y1="703.2869" y2="693.2869"/><line style="stroke:#181818;stroke-width:0.5;" x1="23.14" x2="167.9974" y1="703.2869" y2="703.2869"/><line style="stroke:#181818;stroke-width:0.5;" x1="167.9974" x2="167.9974" y1="703.2869" y2="739.5838"/><text fill="#000000" font-family="sans-serif" font-size="14" lengthAdjust="spacing" textLength="114.8574" x="38.14" y="726.282">Robot Controller</text></g><!--entity Robot--><g class="entity" data-qualified-name="Robot" data-source-line="14" id="ent0009"><polygon fill="#F1F1F1" points="16,826.5769,26,816.5769,185.1445,816.5769,185.1445,852.8738,175.1445,862.8738,16,862.8738,16,826.5769" style="stroke:#181818;stroke-width:0.5;"/><line style="stroke:#181818;stroke-width:0.5;" x1="175.1445" x2="185.1445" y1="826.5769" y2="816.5769"/><line style="stroke:#181818;stroke-width:0.5;" x1="16" x2="175.1445" y1="826.5769" y2="826.5769"/><line style="stroke:#181818;stroke-width:0.5;" x1="175.1445" x2="175.1445" y1="826.5769" y2="862.8738"/><text fill="#000000" font-family="sans-serif" font-size="14" lengthAdjust="spacing" textLength="129.1445" x="31" y="849.572">Robot Manipulator</text></g><!--entity DB--><g class="entity" data-qualified-name="DB" data-source-line="15" id="ent0010"><path d="M401.46,703.7869 C401.46,693.7869 472.5733,693.7869 472.5733,693.7869 C472.5733,693.7869 543.6866,693.7869 543.6866,703.7869 L543.6866,729.0838 C543.6866,739.0838 472.5733,739.0838 472.5733,739.0838 C472.5733,739.0838 401.46,739.0838 401.46,729.0838 L401.46,703.7869" fill="#F1F1F1" style="stroke:#181818;stroke-width:0.5;"/><path d="M401.46,703.7869 C401.46,713.7869 472.5733,713.7869 472.5733,713.7869 C472.5733,713.7869 543.6866,713.7869 543.6866,703.7869" fill="none" style="stroke:#181818;stroke-width:0.5;"/><text fill="#000000" font-family="sans-serif" font-size="14" lengthAdjust="spacing" textLength="122.2266" x="411.46" y="730.782">Central Database</text></g><g class="entity" data-qualified-name="GMN22" data-source-line="33" id="ent0023"><path d="M371.56,269.6069 L371.56,309.8725 L771.5913,309.8725 L771.5913,279.6069 L761.5913,269.6069 L371.56,269.6069" fill="#FEFFDD" style="stroke:#181818;stroke-width:0.5;"/><path d="M761.5913,269.6069 L761.5913,279.6069 L771.5913,279.6069 L761.5913,269.6069" fill="#FEFFDD" style="stroke:#181818;stroke-width:1;"/><text fill="#000000" font-family="sans-serif" font-size="13" lengthAdjust="spacing" textLength="356.2622" x="377.56" y="286.6738">Edge Computing &#1085;&#1091;&#1078;&#1077;&#1085; &#1076;&#1083;&#1103; &#1084;&#1080;&#1085;&#1080;&#1084;&#1072;&#1083;&#1100;&#1085;&#1086;&#1081; &#1079;&#1072;&#1076;&#1077;&#1088;&#1078;&#1082;&#1080;</text><text fill="#000000" font-family="sans-serif" font-size="13" lengthAdjust="spacing" textLength="379.0313" x="377.56" y="301.8066">&#1080; &#1086;&#1073;&#1088;&#1072;&#1073;&#1086;&#1090;&#1082;&#1080; &#1074;&#1080;&#1076;&#1077;&#1086; &#1088;&#1103;&#1076;&#1086;&#1084; &#1089; &#1087;&#1088;&#1086;&#1080;&#1079;&#1074;&#1086;&#1076;&#1089;&#1090;&#1074;&#1077;&#1085;&#1085;&#1086;&#1081; &#1083;&#1080;&#1085;&#1080;&#1077;&#1081;.</text></g><!--link Cameras to VSP--><g class="link" data-entity-1="ent0003" data-entity-2="ent0005" data-link-type="dependency" data-source-line="21" id="lnk13"><path d="M197.57,130.0469 C197.57,164.8769 197.57,225.3169 197.57,260.1469" fill="none" id="Cameras-to-VSP" style="stroke:#181818;stroke-width:1;"/><polygon fill="#181818" points="197.57,266.1469,201.57,257.1469,197.57,261.1469,193.57,257.1469,197.57,266.1469" style="stroke:#181818;stroke-width:1;"/><text fill="#000000" font-family="sans-serif" font-size="13" lengthAdjust="spacing" textLength="88.1626" x="198.57" y="174.6638">Video Stream</text></g><!--link VSP to AIS--><g class="link" data-entity-1="ent0005" data-entity-2="ent0006" data-link-type="dependency" data-source-line="22" id="lnk14"><path d="M198.09,313.2869 C198.59,334.4469 199.1817,360.2385 199.7217,383.6585" fill="none" id="VSP-to-AIS" style="stroke:#181818;stroke-width:1;"/><polygon fill="#181818" points="199.86,389.6569,203.6515,380.5671,199.7447,384.6582,195.6536,380.7515,199.86,389.6569" style="stroke:#181818;stroke-width:1;"/><text fill="#000000" font-family="sans-serif" font-size="13" lengthAdjust="spacing" textLength="48.2231" x="199.57" y="355.9638">Frames</text></g><!--link AIS to RCS--><g class="link" data-entity-1="ent0006" data-entity-2="ent0007" data-link-type="dependency" data-source-line="23" id="lnk15"><path d="M200.57,452.9369 C200.57,482.2469 200.57,519.6769 200.57,545.8069" fill="none" id="AIS-to-RCS" style="stroke:#181818;stroke-width:1;"/><polygon fill="#181818" points="200.57,551.8069,204.57,542.8069,200.57,546.8069,196.57,542.8069,200.57,551.8069" style="stroke:#181818;stroke-width:1;"/><text fill="#000000" font-family="sans-serif" font-size="13" lengthAdjust="spacing" textLength="83.9858" x="201.57" y="495.5538">Defect event</text></g><!--link RCS to RC--><g class="link" data-entity-1="ent0007" data-entity-2="ent0008" data-link-type="dependency" data-source-line="24" id="lnk16"><path d="M148.05,598.6469 C128.53,609.9169 108.5,625.6269 97.57,646.2869 C90.04,660.5169 90.0465,672.9128 92.8765,687.1028" fill="none" id="RCS-to-RC" style="stroke:#181818;stroke-width:1;"/><polygon fill="#181818" points="94.05,692.9869,96.2125,683.3784,93.0721,688.0834,88.367,684.943,94.05,692.9869" style="stroke:#181818;stroke-width:1;"/><text fill="#000000" font-family="sans-serif" font-size="13" lengthAdjust="spacing" textLength="116.2954" x="98.57" y="659.3538">Control command</text></g><!--link RC to Robot--><g class="link" data-entity-1="ent0008" data-entity-2="ent0009" data-link-type="dependency" data-source-line="25" id="lnk17"><path d="M100.57,739.9669 C100.57,761.7469 100.57,788.5769 100.57,810.3169" fill="none" id="RC-to-Robot" style="stroke:#181818;stroke-width:1;"/><polygon fill="#181818" points="100.57,816.3169,104.57,807.3169,100.57,811.3169,96.57,807.3169,100.57,816.3169" style="stroke:#181818;stroke-width:1;"/><text fill="#000000" font-family="sans-serif" font-size="13" lengthAdjust="spacing" textLength="151.3472" x="101.57" y="782.6438">Remove defective item</text></g><!--link AIS to DB--><g class="link" data-entity-1="ent0006" data-entity-2="ent0010" data-link-type="dependency" data-source-line="27" id="lnk18"><path d="M302.26,428.7569 C412.9,438.2369 579.44,460.1269 619.57,507.4869 C664.36,560.3369 664.83,606.9069 624.57,663.2869 C606.09,689.1669 579.7878,701.0384 549.7878,707.6884" fill="none" id="AIS-to-DB" style="stroke:#181818;stroke-width:1;"/><polygon fill="#181818" points="543.93,708.9869,553.5824,710.9444,548.8115,707.9048,551.8511,703.1339,543.93,708.9869" style="stroke:#181818;stroke-width:1;"/><text fill="#000000" font-family="sans-serif" font-size="13" lengthAdjust="spacing" textLength="169.6157" x="654.57" y="579.7038">Defect image + metadata</text></g><!--link RCS to DB--><g class="link" data-entity-1="ent0007" data-entity-2="ent0010" data-link-type="dependency" data-source-line="28" id="lnk19"><path d="M216.45,598.7469 C231.54,618.5769 255.97,646.7569 283.57,663.2869 C319.35,684.7069 358.2823,696.3615 395.2923,703.9515" fill="none" id="RCS-to-DB" style="stroke:#181818;stroke-width:1;"/><polygon fill="#181818" points="401.17,705.1569,393.1571,699.4303,396.2719,704.1524,391.5499,707.2672,401.17,705.1569" style="stroke:#181818;stroke-width:1;"/><text fill="#000000" font-family="sans-serif" font-size="13" lengthAdjust="spacing" textLength="82.1387" x="284.57" y="659.3538">Action result</text></g><!--link DB to Dashboard--><g class="link" data-entity-1="ent0010" data-entity-2="ent0012" data-link-type="dependency" data-source-line="29" id="lnk20"><path d="M407.38,693.2869 C385.09,681.8069 368.29,666.0269 379.57,646.2869 C393.08,622.6469 412.5643,608.7271 436.1243,597.7171" fill="none" id="DB-to-Dashboard" style="stroke:#181818;stroke-width:1;"/><polygon fill="#181818" points="441.56,595.1769,431.7129,595.3634,437.0302,597.2937,435.0999,602.611,441.56,595.1769" style="stroke:#181818;stroke-width:1;"/><text fill="#000000" font-family="sans-serif" font-size="13" lengthAdjust="spacing" textLength="138.5186" x="380.57" y="659.3538">Analytics and reports</text></g><!--link Dashboard to DB--><g class="link" data-entity-1="ent0012" data-entity-2="ent0010" data-link-type="dependency" data-source-line="30" id="lnk21"><path d="M511.28,595.2269 C521.53,613.1569 532.84,640.5469 523.57,663.2869 C518.89,674.7769 514.6651,680.9692 505.8651,689.3492" fill="none" id="Dashboard-to-DB" style="stroke:#181818;stroke-width:1;"/><polygon fill="#181818" points="501.52,693.4869,510.796,690.1771,505.1409,690.0388,505.2791,684.3836,501.52,693.4869" style="stroke:#181818;stroke-width:1;"/><text fill="#000000" font-family="sans-serif" font-size="13" lengthAdjust="spacing" textLength="88.353" x="527.57" y="659.3538">Query history</text></g><!--link Edge to GMN22--><g class="link" data-entity-1="ent0004" data-entity-2="ent0023" data-link-type="association" data-source-line="33" id="lnk24"><path d="M344.6795,289.7469 C344.7242,289.7469 344.769,289.7469 344.8137,289.7469 C344.9032,289.7469 344.9927,289.7469 345.0822,289.7469 C345.2611,289.7469 345.4401,289.7469 345.6191,289.7469 C348.4825,289.7469 351.3463,289.7469 354.21,289.7469 C359.9375,289.7469 365.665,289.7469 371.39,289.7469" fill="none" id="Edge-GMN22" style="stroke:#181818;stroke-width:1;stroke-dasharray:7,7;"/></g><?plantuml-src RLBDQXin4BxhAGPVY_i0EHGSkmL3JLCRt4ikykxO5jsLZ2GRJ2aaxRMGLqc2tJYDits5sJVgIBlh7-XXOUQRR-QR-LPU-GoXXulCh7FK7dfApgpCeGtlqnb2fmzTerUuDXO6HYjlhD8p8RH94LfNrgJBn2kZuQFIs0BfOW3V1C1_AT2LELhf8hMEnVTcNfGSeLsXlTOnwPfyiVGi6HiY56Od31iTzcsDLOe6HjuYRyrg2JfdRAIFHrVdNBwchwTeKIULZahmMbSQQ66iNDXpmBjaSK2dFpeVC3GJuyDIkTHfCo5IXztHyOw6fhqrMOQsPfnL1rAhnJAJlbuseYALNawaOrQN1QtCe5SZaTIxR2G-BTWwxeKlndvrNWQ78-KaZrP9wzLK9lwq1ISyriqdHjgqcjjauORwjq2x_IvO21Tmwh48K2YnELpwm8y5dGX90Da61diuHLR45TyW0bILk59x4ZmD5dAngaLBBc28kLaXfB5VSQGyvk8mlNTv7AvooO_X3UJePN3je1D9dUh9MNJBp0k6OgMvCX2qpDPU9Gx2dxIuCDOxSMGS9drUebt3N3bsRXtSzmXMpUOUp3G-I77-K85Uov_qcxRq2hIXb_8EQ4yxUkLlJ_SC_EAue6UW9qutj2rlcFw7Te9sm8K7pk_fWOhoHq217hcJQLH0ULFUSLZG7ifReB_CBBZun9I2DkKjTpm6uKRWfTRTqlDRWNndsFuV?></g></svg>