<svg xmlns="http://www.w3.org/2000/svg" xmlns:xlink="http://www.w3.org/1999/xlink" contentStyleType="text/css" data-diagram-type="DESCRIPTION" height="336px" preserveAspectRatio="none" style="width:1465px;height:336px;background:#FFFFFF;" version="1.1" viewBox="0 0 1465 336" width="1465px" zoomAndPan="magnify"><?plantuml 1.2026.4beta2?><defs/><g><g class="title" data-source-line="1"><text fill="#000000" font-family="sans-serif" font-size="14" font-weight="700" lengthAdjust="spacing" textLength="461.5352" x="498.4124" y="22.9951">Use Case Diagram - AI Vision Conveyor Monitoring System</text></g><!--cluster AI Vision Conveyor Monitoring System--><g class="cluster" data-qualified-name="AI Vision Conveyor Monitoring System" data-source-line="9" id="ent0006"><rect fill="none" height="184" rx="2.5" ry="2.5" style="stroke:#181818;stroke-width:1;" width="1326.5" x="124.86" y="44.2969"/><text fill="#000000" font-family="sans-serif" font-size="14" font-weight="700" lengthAdjust="spacing" textLength="302.6543" x="636.7829" y="59.292">AI Vision Conveyor Monitoring System</text></g><!--entity UC1--><g class="entity" data-qualified-name="AI Vision Conveyor Monitoring System.UC1" data-source-line="10" id="ent0007"><ellipse cx="205.7766" cy="104.2943" fill="#F1F1F1" rx="62.1066" ry="25.1174" style="stroke:#181818;stroke-width:0.5;"/><text fill="#000000" font-family="sans-serif" font-size="14" lengthAdjust="spacing" textLength="71.3057" x="170.1238" y="99.4505">&#1055;&#1077;&#1088;&#1077;&#1076;&#1072;&#1090;&#1100;</text><text fill="#000000" font-family="sans-serif" font-size="14" lengthAdjust="spacing" textLength="87.1035" x="162.2249" y="115.7473">&#1074;&#1080;&#1076;&#1077;&#1086;&#1087;&#1086;&#1090;&#1086;&#1082;</text></g><!--entity UC2--><g class="entity" data-qualified-name="AI Vision Conveyor Monitoring System.UC2" data-source-line="11" id="ent0008"><ellipse cx="491.4887" cy="136.2982" fill="#F1F1F1" rx="95.7987" ry="24.6714" style="stroke:#181818;stroke-width:0.5;"/><text fill="#000000" font-family="sans-serif" font-size="14" lengthAdjust="spacing" textLength="139.5693" x="421.7041" y="134.8102">&#1055;&#1088;&#1086;&#1072;&#1085;&#1072;&#1083;&#1080;&#1079;&#1080;&#1088;&#1086;&#1074;&#1072;&#1090;&#1100;</text><text fill="#000000" font-family="sans-serif" font-size="14" lengthAdjust="spacing" textLength="99.2988" x="441.8393" y="151.107">&#1080;&#1079;&#1086;&#1073;&#1088;&#1072;&#1078;&#1077;&#1085;&#1080;&#1077;</text></g><!--entity UC3--><g class="entity" data-qualified-name="AI Vision Conveyor Monitoring System.UC3" data-source-line="12" id="ent0009"><ellipse cx="775.8047" cy="177.2964" fill="#F1F1F1" rx="63.5047" ry="24.2795" style="stroke:#181818;stroke-width:0.5;"/><text fill="#000000" font-family="sans-serif" font-size="14" lengthAdjust="spacing" textLength="92.6748" x="729.4673" y="176.4101">&#1054;&#1073;&#1085;&#1072;&#1088;&#1091;&#1078;&#1080;&#1090;&#1100;</text><text fill="#000000" font-family="sans-serif" font-size="14" lengthAdjust="spacing" textLength="55.4873" x="748.061" y="192.707">&#1076;&#1077;&#1092;&#1077;&#1082;&#1090;</text></g><!--entity UC4--><g class="entity" data-qualified-name="AI Vision Conveyor Monitoring System.UC4" data-source-line="13" id="ent0010"><ellipse cx="1060.6963" cy="177.2959" fill="#F1F1F1" rx="96.3963" ry="23.669" style="stroke:#181818;stroke-width:0.5;"/><text fill="#000000" font-family="sans-serif" font-size="14" lengthAdjust="spacing" textLength="147.2803" x="987.0561" y="177.3798">&#1054;&#1090;&#1087;&#1088;&#1072;&#1074;&#1080;&#1090;&#1100; &#1082;&#1086;&#1084;&#1072;&#1085;&#1076;&#1091;</text><text fill="#000000" font-family="sans-serif" font-size="14" lengthAdjust="spacing" textLength="51.0918" x="1035.1504" y="193.6767">&#1088;&#1086;&#1073;&#1086;&#1090;&#1091;</text></g><!--entity UC5--><g class="entity" data-qualified-name="AI Vision Conveyor Monitoring System.UC5" data-source-line="14" id="ent0011"><ellipse cx="1358.7338" cy="182.2922" fill="#F1F1F1" rx="76.6338" ry="25.1953" style="stroke:#181818;stroke-width:0.5;"/><text fill="#000000" font-family="sans-serif" font-size="14" lengthAdjust="spacing" textLength="108.1309" x="1304.6684" y="180.0211">&#1059;&#1076;&#1072;&#1083;&#1080;&#1090;&#1100; &#1090;&#1086;&#1074;&#1072;&#1088;</text><text fill="#000000" font-family="sans-serif" font-size="14" lengthAdjust="spacing" textLength="90.3643" x="1313.5517" y="196.3179">&#1089; &#1082;&#1086;&#1085;&#1074;&#1077;&#1081;&#1077;&#1088;&#1072;</text></g><!--entity UC6--><g class="entity" data-qualified-name="AI Vision Conveyor Monitoring System.UC6" data-source-line="15" id="ent0012"><ellipse cx="205.7773" cy="188.3011" fill="#F1F1F1" rx="64.9173" ry="23.8343" style="stroke:#181818;stroke-width:0.5;"/><text fill="#000000" font-family="sans-serif" font-size="14" lengthAdjust="spacing" textLength="96.8652" x="157.3446" y="188.1181">&#1055;&#1088;&#1086;&#1089;&#1084;&#1086;&#1090;&#1088;&#1077;&#1090;&#1100;</text><text fill="#000000" font-family="sans-serif" font-size="14" lengthAdjust="spacing" textLength="41.7607" x="184.8969" y="204.415">&#1086;&#1090;&#1095;&#1077;&#1090;</text></g><!--entity Camera--><g class="entity" data-qualified-name="Camera" data-source-line="4" id="ent0002"><ellipse cx="41.9296" cy="60.6469" fill="#F1F1F1" rx="8" ry="8" style="stroke:#181818;stroke-width:0.5;"/><path d="M41.9296,68.6469 L41.9296,95.6469 M28.9296,76.6469 L54.9296,76.6469 M41.9296,95.6469 L28.9296,110.6469 M41.9296,95.6469 L54.9296,110.6469" fill="none" style="stroke:#181818;stroke-width:0.5;"/><text fill="#000000" font-family="sans-serif" font-size="14" lengthAdjust="spacing" textLength="55.1592" x="14.35" y="125.142">&#1050;&#1072;&#1084;&#1077;&#1088;&#1072;</text></g><!--entity AIModule--><g class="entity" data-qualified-name="AIModule" data-source-line="5" id="ent0003"><ellipse cx="205.774" cy="255.6469" fill="#F1F1F1" rx="8" ry="8" style="stroke:#181818;stroke-width:0.5;"/><path d="M205.774,263.6469 L205.774,290.6469 M192.774,271.6469 L218.774,271.6469 M205.774,290.6469 L192.774,305.6469 M205.774,290.6469 L218.774,305.6469" fill="none" style="stroke:#181818;stroke-width:0.5;"/><text fill="#000000" font-family="sans-serif" font-size="14" lengthAdjust="spacing" textLength="80.2881" x="165.63" y="320.142">&#1048;&#1048;-&#1084;&#1086;&#1076;&#1091;&#1083;&#1100;</text></g><!--entity Robot--><g class="entity" data-qualified-name="Robot" data-source-line="6" id="ent0004"><ellipse cx="1060.7013" cy="252.6469" fill="#F1F1F1" rx="8" ry="8" style="stroke:#181818;stroke-width:0.5;"/><path d="M1060.7013,260.6469 L1060.7013,287.6469 M1047.7013,268.6469 L1073.7013,268.6469 M1060.7013,287.6469 L1047.7013,302.6469 M1060.7013,287.6469 L1073.7013,302.6469" fill="none" style="stroke:#181818;stroke-width:0.5;"/><text fill="#000000" font-family="sans-serif" font-size="14" lengthAdjust="spacing" textLength="145.2227" x="988.09" y="317.142">&#1056;&#1086;&#1073;&#1086;&#1090;-&#1084;&#1072;&#1085;&#1080;&#1087;&#1091;&#1083;&#1103;&#1090;&#1086;&#1088;</text></g><!--entity Operator--><g class="entity" data-qualified-name="Operator" data-source-line="7" id="ent0005"><ellipse cx="41.9297" cy="171.6469" fill="#F1F1F1" rx="8" ry="8" style="stroke:#181818;stroke-width:0.5;"/><path d="M41.9297,179.6469 L41.9297,206.6469 M28.9297,187.6469 L54.9297,187.6469 M41.9297,206.6469 L28.9297,221.6469 M41.9297,206.6469 L54.9297,221.6469" fill="none" style="stroke:#181818;stroke-width:0.5;"/><text fill="#000000" font-family="sans-serif" font-size="14" lengthAdjust="spacing" textLength="71.8594" x="6" y="236.142">&#1054;&#1087;&#1077;&#1088;&#1072;&#1090;&#1086;&#1088;</text></g><!--link Camera to UC1--><g class="link" data-entity-1="ent0002" data-entity-2="ent0007" data-link-type="dependency" data-source-line="18" id="lnk13"><path d="M69.66,92.6069 C90.04,94.3769 112.9325,96.3483 138.7525,98.5883" fill="none" id="Camera-to-UC1" style="stroke:#181818;stroke-width:1;"/><polygon fill="#181818" points="144.73,99.1069,136.1094,94.344,139.7487,98.6747,135.418,102.314,144.73,99.1069" style="stroke:#181818;stroke-width:1;"/></g><!--link AIModule to UC2--><g class="link" data-entity-1="ent0003" data-entity-2="ent0008" data-link-type="dependency" data-source-line="19" id="lnk14"><path d="M246.32,251.9769 C254.63,244.4469 263.15,236.3069 270.69,228.2969 C285.45,212.6369 282.81,202.2669 300.69,190.2969 C332.3,169.1469 366.327,157.5069 401.357,149.6069" fill="none" id="AIModule-to-UC2" style="stroke:#181818;stroke-width:1;"/><polygon fill="#181818" points="407.21,148.2869,397.5505,146.3648,402.3325,149.3869,399.3105,154.1688,407.21,148.2869" style="stroke:#181818;stroke-width:1;"/></g><!--link AIModule to UC3--><g class="link" data-entity-1="ent0003" data-entity-2="ent0009" data-link-type="dependency" data-source-line="20" id="lnk15"><path d="M246.31,273.4169 C263,268.6469 282.7,263.3369 300.69,259.2969 C448.83,226.0669 619.6523,199.5491 709.7323,186.4691" fill="none" id="AIModule-to-UC3" style="stroke:#181818;stroke-width:1;"/><polygon fill="#181818" points="715.67,185.6069,706.1886,182.9417,710.7219,186.3254,707.3382,190.8586,715.67,185.6069" style="stroke:#181818;stroke-width:1;"/></g><!--link AIModule to UC4--><g class="link" data-entity-1="ent0003" data-entity-2="ent0010" data-link-type="dependency" data-source-line="21" id="lnk16"><path d="M246.17,282.4469 C345.84,274.9469 616.03,252.9269 839.3,219.2969 C888.6,211.8769 937.819,202.566 980.599,193.916" fill="none" id="AIModule-to-UC4" style="stroke:#181818;stroke-width:1;"/><polygon fill="#181818" points="986.48,192.7269,976.8658,190.5899,981.5792,193.7178,978.4513,198.4312,986.48,192.7269" style="stroke:#181818;stroke-width:1;"/></g><!--link Robot to UC5--><g class="link" data-entity-1="ent0004" data-entity-2="ent0011" data-link-type="dependency" data-source-line="22" id="lnk17"><path d="M1133.74,257.9669 C1186.45,240.1569 1251.1156,218.3171 1298.8056,202.2071" fill="none" id="Robot-to-UC5" style="stroke:#181818;stroke-width:1;"/><polygon fill="#181818" points="1304.49,200.2869,1294.6832,199.3776,1299.753,201.8871,1297.2435,206.9568,1304.49,200.2869" style="stroke:#181818;stroke-width:1;"/></g><!--link Operator to UC6--><g class="link" data-entity-1="ent0005" data-entity-2="ent0012" data-link-type="dependency" data-source-line="23" id="lnk18"><path d="M78.05,198.4769 C96.73,196.9769 114.2994,195.569 136.0094,193.819" fill="none" id="Operator-to-UC6" style="stroke:#181818;stroke-width:1;"/><polygon fill="#181818" points="141.99,193.3369,132.6977,190.0729,137.0062,193.7386,133.3405,198.0471,141.99,193.3369" style="stroke:#181818;stroke-width:1;"/></g><!--link UC1 to UC2--><g class="link" data-entity-1="ent0007" data-entity-2="ent0008" data-link-type="dependency" data-source-line="25" id="lnk19"><path d="M265.91,110.9669 C305.61,115.4469 352.6477,120.7549 397.1877,125.7749" fill="none" id="UC1-to-UC2" style="stroke:#181818;stroke-width:1;stroke-dasharray:7,7;"/><polygon fill="#181818" points="403.15,126.4469,394.6546,121.4641,398.1815,125.8869,393.7586,129.4137,403.15,126.4469" style="stroke:#181818;stroke-width:1;"/><text fill="#000000" font-family="sans-serif" font-size="13" lengthAdjust="spacing" textLength="63.0068" x="301.69" y="112.3638">&#171;include&#187;</text></g><!--link UC2 to UC3--><g class="link" data-entity-1="ent0008" data-entity-2="ent0009" data-link-type="dependency" data-source-line="26" id="lnk20"><path d="M575.67,148.3769 C620.72,154.9169 669.3723,161.9844 709.9923,167.8844" fill="none" id="UC2-to-UC3" style="stroke:#181818;stroke-width:1;stroke-dasharray:7,7;"/><polygon fill="#181818" points="715.93,168.7469,707.5984,163.4948,710.9819,168.0282,706.4485,171.4117,715.93,168.7469" style="stroke:#181818;stroke-width:1;"/><text fill="#000000" font-family="sans-serif" font-size="13" lengthAdjust="spacing" textLength="63.0068" x="618.29" y="152.3638">&#171;include&#187;</text></g><!--link UC3 to UC4--><g class="link" data-entity-1="ent0009" data-entity-2="ent0010" data-link-type="dependency" data-source-line="27" id="lnk21"><path d="M839.58,177.2969 C876.13,177.2969 916.94,177.2969 958,177.2969" fill="none" id="UC3-to-UC4" style="stroke:#181818;stroke-width:1;stroke-dasharray:7,7;"/><polygon fill="#181818" points="964,177.2969,955,173.2969,959,177.2969,955,181.2969,964,177.2969" style="stroke:#181818;stroke-width:1;"/><text fill="#000000" font-family="sans-serif" font-size="13" lengthAdjust="spacing" textLength="63.0068" x="870.3" y="173.3638">&#171;include&#187;</text></g><!--link UC4 to UC5--><g class="link" data-entity-1="ent0010" data-entity-2="ent0011" data-link-type="dependency" data-source-line="28" id="lnk22"><path d="M1156.99,178.9069 C1197.39,179.5869 1237.8108,180.2759 1275.8308,180.9159" fill="none" id="UC4-to-UC5" style="stroke:#181818;stroke-width:1;stroke-dasharray:7,7;"/><polygon fill="#181818" points="1281.83,181.0169,1272.8986,176.866,1276.8307,180.9327,1272.764,184.8648,1281.83,181.0169" style="stroke:#181818;stroke-width:1;"/><text fill="#000000" font-family="sans-serif" font-size="13" lengthAdjust="spacing" textLength="63.0068" x="1188.09" y="176.3638">&#171;include&#187;</text></g><?plantuml-src ZL9DImCn4BtdLmnxRq7RUX0fo7hfGGIbddfPsrW3xKPsKq54w8VWHV0g7bJm3zJI-j7gzYzC_f6JR5gwzk8baFVclNapYHAgnQ4QS_03ElP4q8o2DkHWjmB78XOo15-65_nIHh0lGw5a9C8c75t6YhTPYvygK18YqJnJq10HhokIC1RKgH0yVCGXVkD4Tt7eGH1JapQFWYNzW0yvuXCSwm7Ez9sjsQtioqQdnPTLBrJmXedkczeX_k0dpctzlUuJtBMgGtaYrLBoXFEqwqh5mJcr9fen4pC8cpIuzvynFRXY09sOrysAF7osrXCS6tjzLmjnH976X2JKDZ4jSMfRLlsDh99qYHrXY3FIVE2dHKPB9uFHj2OwlfEZ6NRYl3OpNa-q4_BHNLh5E_caUagXRqWtrNsdAcHLb6vktKUf1d1A3TEzqYlKGXl8hbiFd4KnO_5g1ZVnhTnEQ_9tITfBtNu8cE3NohjN_TBw8dJFl3svq39TV7ExDJUdscBNZAMV1dAvibteudyuOFClKFWB59dz7EvMOekFu80jniWMyddh1jkmioF2UglJuEKoCqZA5DQOWcEAQqpHCQKiymi0?></g></svg>